<svg xmlns="http://www.w3.org/2000/svg" id="Layer_2" viewBox="0 0 255.33 345.5"><defs><style>.cls-1{fill:#00b228;}.cls-2{fill:#fff;}</style></defs><g id="Layer_1-2"><g><path class="cls-2" d="M157.57,305.81c-1.65,.18-2.84,1.66-2.66,3.31,.61,5.61,.56,11.55,.51,17.29,0,1.63-.03,3.26-.03,4.88s1.35,3,3,3,3-1.34,3-3,.02-3.22,.03-4.83c.05-5.91,.11-12.03-.54-17.99-.18-1.65-1.66-2.83-3.31-2.66Zm32.03,35.8l-41.53,.66c1.65,0,3-1.34,3-3,0-10.47,.44-21.11,.86-31.39l.14-3.25c.11-2.77,.16-5.56,.2-8.25,.25-14.52,.49-28.24,10.91-39.2,.04-.04,.06-.09,.1-.13l.12-.12c2.96-3.92,6.59-7.51,10.8-10.66,9.46-7.11,18.08-16.92,23.63-26.91,1.08-1.94,1.69-5.14,2.4-8.84,.78-4.08,2.23-11.67,4.26-12.59,.39-.18,1.24,.29,1.5,.45,.45,.26,.86,.75,1.23,1.47,1.23,2.41,1.56,6.5,1.83,9.79,.13,1.63,.26,3.17,.48,4.45,.44,2.53,.52,4.7,.25,6.63-.02,.06-.02,.11-.03,.16h0s0,.08-.02,.11c-.55,3.25-2.19,5.68-4.66,8.54-.72,.83-1.48,1.67-2.29,2.55-.91,1-1.87,2.06-2.85,3.2-8.04,9.29-13.65,22.46-5.29,31.53,.6,.64,1.4,.97,2.21,.97,.73,0,1.46-.27,2.03-.8,1.22-1.12,1.3-3.02,.18-4.24-7.5-8.13,4.07-21.99,5.41-23.54,.95-1.1,1.87-2.12,2.75-3.08,.55-.6,1.07-1.18,1.58-1.75,.5-.04,1-.09,1.49-.13,1.29-.1,2.55-.2,3.77-.34,1.76-.19,3.27-.21,4.62-.04h.07c3.48,.46,5.67,2.12,8.98,4.63,1.05,.8,2.25,1.71,3.6,2.65h.01s.06,.05,.1,.08l.8,.54c.51,.34,1.09,.51,1.66,.51,.97,0,1.92-.47,2.5-1.34,.34-.52,.51-1.1,.5-1.68,5.7-6.17,7.28-15.12,8.02-23.23,.41-4.46,.88-8.99,1.33-13.37,1.03-9.92,2.1-20.17,2.49-30.36,.13-3.62-.3-7.01-.73-10.29-.32-2.46-.62-4.79-.69-7.17-.04-1.62,.09-3.6,.71-5.31,2.72,3.74,5.01,10.74,5.9,15.32,2.4,12.49,1.23,25.45,.11,37.99-.48,5.34-.98,10.86-1.2,16.31-.07,1.53-.12,3.08-.16,4.63-.36,11.38-.74,23.15-7.12,32.46-3.43,4.98-5.31,6.4-11.2,8.46-8.57,3-15.34,8.22-21.89,13.28-9.75,7.52-20.2,16.66-23.68,27.37-2.15,6.6-5.76,25.9-1.93,34.49,.5,1.12,1.59,1.78,2.74,1.78Zm-8.3-50.57c.41-1.61-.56-3.24-2.16-3.65-1.61-.41-3.24,.56-3.65,2.16-.48,1.86-1.02,3.97-1.09,6.14-.06,1.65,1.23,3.04,2.89,3.1h.11c1.6,0,2.93-1.27,2.99-2.89,.06-1.52,.51-3.3,.91-4.86Zm-3.41,38.25v-8c0-1.65-1.34-3-3-3s-3,1.35-3,3v8c0,1.66,1.35,3,3,3s3-1.34,3-3Z"></path><path class="cls-2" d="M104.58,345.5l-37.95-4.05c1.57-.54,2.41-2.24,1.87-3.81-1.49-4.37-1.39-9.19-1.28-14.29,.16-7.72,.33-15.71-5.05-22.94-6.45-8.68-14.27-16.51-21.84-24.09-2.81-2.82-5.72-5.73-8.47-8.61-3.13-3.26-7.28-5.64-11.29-7.93-5.88-3.37-11.44-6.55-13.38-12.06-2.62-7.44-3.32-15.24-4.06-23.49-.51-5.7-1.04-11.59-2.26-17.3-2.55-11.89,1.05-27.46,3.93-39.97,.37-1.6,.74-3.16,1.07-4.68,.9-4,3.74-7.28,6.92-8.28,.36,1.75,.07,3.61-.31,5.02-2.43,9.03-3.56,19.01-4.07,25.8-.61,7.93-.97,15.76,1.33,24.41,.32,1.21,.63,2.46,.94,3.74,1.58,6.39,3.36,13.63,7.85,19.03,1.63,1.97,3.64,3.69,6.17,5.26,.09,.06,.19,.11,.29,.16,.02,.01,.04,.02,.07,.03,.17,.08,.35,.14,.54,.18,.04,.01,.07,.02,.11,.03,.19,.03,.38,.06,.57,.06,.23,0,.45-.04,.66-.09,.06-.01,.11-.02,.17-.04,.18-.05,.36-.12,.53-.21,.03-.01,.07-.03,.1-.04,.17-.1,.33-.2,.48-.33,3.05-2.58,8.32-4.25,11.73-4.51,.36-.03,.71-.04,1.07-.05,1.62,5.41,4.58,10.34,8.81,14.67,1.56,1.59,3.25,2.86,4.75,3.97,4.2,3.13,5.94,4.43,3.65,9.79-.65,1.53,.06,3.29,1.59,3.94,.38,.16,.78,.24,1.17,.24,1.17,0,2.28-.69,2.76-1.83,4.14-9.7-1.25-13.72-5.59-16.95-1.38-1.03-2.81-2.1-4.04-3.36-4.09-4.18-6.66-8.79-7.85-14.08-.7-3.08-.92-6.31-.68-9.89,.25-3.63,.97-7.52,2.22-11.91,.25-.94,.57-1.96,.98-3.23,1.01-3.14,1.77-4.15,2.11-4.46,.13,.07,.32,.22,.59,.47,1.35,1.28,1.5,3.05,1.63,5.84,.08,1.52,.15,3.1,.55,4.71,2.55,10.42,8.85,20.67,17.75,28.86,3.21,2.95,6.87,5.46,10.41,7.89,4.96,3.4,9.64,6.62,13.13,10.89,.97,1.19,1.75,2.59,2.32,4.19,0,.04,.03,.07,.05,.11,.04,.09,.08,.19,.13,.28s.1,.17,.15,.25,.11,.15,.17,.23l.21,.24s.05,.06,.08,.09c2.48,2.28,4.3,4.56,5.58,6.99,3.29,6.23,2.55,13.33,1.78,20.85-.35,3.38-.71,6.89-.69,10.34,.06,6.92-.6,13.88-1.24,20.61-.63,6.61-1.28,13.44-1.28,20.38,0,1.43,1.01,2.64,2.36,2.93Zm-7.94-21.51c.69-4.82,1.41-9.81,1.25-14.79-.05-1.66-1.45-2.96-3.09-2.9-1.66,.05-2.96,1.44-2.9,3.09,.14,4.45-.51,8.96-1.2,13.74-.64,4.43-1.3,9.01-1.31,13.66,0,1.66,1.35,3,3,3,.83,0,1.58-.34,2.12-.88,.55-.54,.88-1.29,.88-2.12,.01-4.21,.64-8.58,1.25-12.8Zm-16.25,11.3v-7.5c0-1.65-1.34-3-3-3s-3,1.35-3,3v7.5c0,1.66,1.35,3,3,3s3-1.34,3-3Zm-3.5-28.66c1.56-.55,2.38-2.26,1.84-3.83-.53-1.51-1.04-3.19-1.43-4.74-.4-1.6-2.03-2.58-3.64-2.18-1.6,.41-2.58,2.04-2.18,3.64,.44,1.75,.99,3.57,1.58,5.27,.44,1.23,1.59,2,2.83,2,.33,0,.67-.05,1-.16Z"></path><path class="cls-1" d="M237.71,80.64c5.05,12.49,5.03,26.39,5.02,38.66,0,1.65-1.35,2.99-3,2.99h-.01c-1.65,0-2.99-1.34-2.99-3,.01-11.72,.03-25-4.58-36.4-4.57-11.31-12.36-21.34-19.38-29.66-1.07-1.27-.91-3.16,.36-4.23,1.26-1.07,3.15-.91,4.22,.36,7.33,8.68,15.47,19.19,20.36,31.28Z"></path><path class="cls-2" d="M242.06,162.77c.41,3.17,.8,6.18,.68,9.29-.38,10-1.43,20.15-2.46,29.97-.45,4.4-.93,8.95-1.34,13.45-.63,6.89-1.88,14.43-6.12,19.33-.5-.37-.99-.74-1.47-1.1-2.52-1.91-4.82-3.63-7.68-4.74,2.3-3.91,4.43-7.79,5.96-12.96,3.01-10.2,5.42-18.77,6.87-28.46,.1-.67,.22-1.43,.35-2.24,.99-6.25,2.45-15.57,.67-22.48,.09-.43,.17-.85,.22-1.26l.06-.4c.65-4.65,1.32-9.44,4.2-12.44-.5,1.86-.74,3.94-.67,6.27,.07,2.69,.41,5.27,.73,7.77Z"></path><path class="cls-2" d="M217.64,227.38c-.07,.12-.15,.26-.22,.38-1.2-.03-2.47,.02-3.83,.16,.96-1.77,1.66-3.67,2.04-5.86,.42-1.22,.74-2.42,1.07-3.68,.26-1.01,.53-2.06,.87-3.15,1.09-3.48,2.37-7.03,3.61-10.47,1.72-4.75,3.49-9.66,4.83-14.57l.03-.09c.62-2.26,1.14-4.52,1.53-6.73,.61-3.42,2.56-6.4,4.63-9.55,0-.02,.03-.05,.04-.07-.25,3.86-.86,7.74-1.31,10.62-.14,.84-.26,1.61-.36,2.3-1.4,9.32-3.66,17.33-6.69,27.64-1.51,5.1-3.7,8.79-6.24,13.07Z"></path><path class="cls-2" d="M215.54,202.72c-.29,.82-.59,1.64-.89,2.47-.28-2.35-.71-4.75-1.55-6.85,.74-2.09,1.51-3.92,2.36-5.5,.87-1.63,2.02-2.62,3.17-2.73,.37-.03,.74,.04,1.09,.2-1.21,4.14-2.71,8.33-4.18,12.41Z"></path><path class="cls-1" d="M204.19,31.53c1.32,1,1.57,2.88,.57,4.2-.59,.78-1.49,1.18-2.39,1.18-.63,0-1.27-.2-1.82-.61C173.81,15.92,148.58,6.01,123.44,6c-1.65,0-3-1.34-3-3s1.35-3,3-3c26.51,.01,52.92,10.32,80.75,31.53Z"></path><path class="cls-2" d="M210.2,82.83c1.7,3.88,3.12,7.81,4.26,11.79-.68,.08-1.34,.2-2.01,.39-1.32,.38-5.81,1.86-7.87,4.7-1.09,1.51-1.44,3.23-1.72,4.6-.15,.73-.29,1.42-.5,1.91-.63,.77-3.15,1.84-4.27,1.84h-.04c-.04-.06-.1-.14-.2-.26-.53-.71-1.65-2.17-4.17-2.27-1.03-.05-1.93,.33-2.8,.68-.3,.12-.81,.33-.91,.35-.76,.04-1.53,0-2.34-.02-2.91-.09-6.51-.21-9.74,2.92l-.86-.26c2.1-2.24,2.76-5.36,1.81-8.87l-.13-.47c-.54-1.94-1.14-4.14-.5-5.57l.4-.87c.87-1.95,2.06-4.62,3.2-5.05,.45-.17,1.13,.06,1.62,.28,.54,.24,1.47,.91,2.37,1.55,2.89,2.06,6.84,4.89,10.71,3.14,3.82-1.72,3.23-5.69,2.95-7.6-.09-.61-.24-1.62-.18-1.88,.1-.17,.72-.54,4.3-.27l.69,.05c1.96,.11,3.94-.16,5.93-.81Z"></path><path class="cls-1" d="M214.12,100.77c.6-.17,1.2-.23,1.81-.2,3.99,18.84,1.7,38.37-7.04,56.44-3.11,6.42-6.84,12.3-11.1,17.62-.09-.17-.18-.35-.26-.52-.84-1.67-1.64-3.26-1.87-4.83-.12-.85-.07-1.99-.01-3.19,.15-3.36,.37-7.97-3.63-10.63-3.69-2.44-7.31-.81-9.71,.27-.89,.4-1.73,.79-2.43,.94-1.61,.34-4.16-.09-5.33-.91-.39-.26-.73-.87-1.13-1.58-.65-1.16-1.47-2.6-3.09-3.68-.76-.51-1.45-.85-2-1.12-.2-.1-.45-.22-.62-.32,0-.12,0-.3,.01-.57,.2-3.01,2.08-5.73,4.07-8.61,.68-.99,1.38-2.02,2.03-3.06,.63-1.03,1.56-1.94,2.55-2.9,2.07-2.03,4.65-4.55,4.64-8.84,0-1.36-.13-2.66-.27-3.92-.37-3.54-.5-5.63,1.32-7.39,1.34-1.3,2.69-1.32,5.37-1.23,.89,.03,1.81,.06,2.82,.02,1.08-.05,2.08-.46,2.89-.79,.04-.02,.1-.04,.15-.06,.37,.46,.92,1.07,1.79,1.6,1.89,1.14,4.37,.74,6.11,.21,.85-.26,5.19-1.71,6.57-4.68,.53-1.14,.77-2.3,.98-3.32,.19-.95,.37-1.84,.71-2.3,.48-.67,2.4-1.79,4.67-2.45Z"></path><path class="cls-1" d="M157.21,78.45c3.19,1.89,7.56,4.49,13.71-.83,8.1-7,9.9-14.12,5.35-21.17-3.51-5.43-9.88-7.1-16.03-8.73-4.71-1.24-9.16-2.41-11.58-5.09-2.52-2.79-2.54-8.51-2.06-13.55,22.72,5.09,43.61,19.94,56.97,41.26,1.45,2.3,2.77,4.64,4,7.01-1,.25-1.97,.36-2.92,.3l-.62-.05c-2.89-.21-7.73-.57-9.94,3.26-1.13,1.95-.82,4.07-.57,5.77,.06,.37,.13,.88,.16,1.26-1.07-.2-3.51-1.95-4.39-2.57-1.19-.85-2.31-1.66-3.4-2.15-2.22-.99-4.31-1.13-6.22-.41-3.46,1.32-5.1,4.98-6.54,8.21l-.38,.84c-1.55,3.4-.55,7.01,.17,9.64l.13,.46c.62,2.28-.2,3.15-.98,3.66-2.38,1.54-7.21,1.13-9.57-.81-1.13-.93-1.37-1.92-.82-3.33l.17-.41c1.28-3.18,2.72-6.78-.06-11.25-1.32-2.13-2.99-3.57-4.47-4.84-1.86-1.59-3.2-2.74-3.71-4.86-.12-.48-.27-1.01-.42-1.55-.16-.56-.41-1.44-.55-2.15h.01c1.7,.38,3.09,1.21,4.56,2.08Z"></path><path class="cls-1" d="M167.28,223.15c.45,1.6-.48,3.25-2.08,3.7l-3.37,.95c-11.47,3.23-20.68,5.83-33.07,5.83-.83,0-1.69-.01-2.55-.03-8.61-.24-16.88-2.51-24.88-4.69-3.16-.87-6.42-1.76-9.61-2.5-1.62-.37-2.62-1.98-2.25-3.59,.37-1.62,1.98-2.63,3.6-2.25,3.31,.76,6.63,1.67,9.84,2.55,7.66,2.09,15.58,4.26,23.46,4.48,12.8,.37,22.08-2.26,33.83-5.58l3.39-.95c1.59-.44,3.25,.49,3.69,2.08Z"></path><path class="cls-1" d="M111.57,61.64c-.09,.16-.46,.28-.77,.35-2.65,.52-7.77-1.27-9.46-2.63-1.88-1.5-2.76-3.56-3.78-5.95-.8-1.88-1.63-3.83-3.02-5.69-.62-.83-1.27-1.52-1.84-2.14-1.17-1.23-1.78-1.93-1.99-3.02-.32-1.76-.34-3.66-.28-5.64,7.31-3.8,14.81-6.49,22.42-8.08-.63,3.64-.08,7.14,1.67,11.04,.79,1.78,.64,2.08-1.21,4.82-1.92,2.84-2.33,6.84-2.33,9.69,0,1.05,.18,2.14,.37,3.3,.19,1.17,.54,3.36,.22,3.95Z"></path><path class="cls-1" d="M102.74,5.25c.41,1.6-.56,3.24-2.17,3.65-12.87,3.29-25.66,9.21-38.02,17.59-.52,.35-1.1,.52-1.68,.52-.96,0-1.91-.46-2.49-1.31-.93-1.37-.57-3.24,.8-4.17,12.93-8.78,26.36-14.99,39.91-18.45,1.6-.41,3.23,.56,3.65,2.17Z"></path><path class="cls-2" d="M46.86,143.14c1.07,.2,1.99,.38,2.6,.81,2.41,1.71,4.7,4.02,6.91,6.25l.61,.61c1.79,1.79,4.16,3.39,6.45,4.94,3.32,2.23,6.74,4.54,7.96,7.08,.7,1.46,1.55,2.9,2.37,4.29,2.01,3.38,3.9,6.57,3.63,9.87-.03,.34-.33,.93-.61,1.5-.6,1.2-1.35,2.68-1.22,4.57,.27,3.75,3.41,5.01,5.1,5.69,.39,.16,.77,.31,1.04,.45,1.36,.72,2.44,1.83,3.7,3.12,.68,.7,1.39,1.42,2.19,2.12,1.45,1.29,3.04,2.2,4.57,3.09,1.03,.59,2.01,1.16,2.87,1.8,.58,.43,1.09,.84,1.56,1.22,1.94,1.56,3.76,3.03,7.37,3.64,.47,.08,1.33,.23,2.15,1.05-29.9-6.85-58.6-28.39-66.43-66.73,.54,.94,1.24,1.96,2.33,2.8,1.58,1.21,3.39,1.55,4.85,1.83Z"></path><path class="cls-1" d="M63.8,141c1.47,2.8,3.49,6.63,8,7.42,1,.17,2.11,.11,3.18,.04,.65-.04,1.68-.1,2.21-.03,.4,.84,.61,3.14,.72,4.29,.1,1.16,.2,2.26,.42,3.15,1.2,4.88,4.27,6.65,6.64,7.28,4.92,1.3,6.93-1.45,8.39-3.46l.43-.59c1.81-2.41,10.09-6.97,14.09-6.1,.73,.16,1.17,.45,1.4,1.5,.93,4.35,3.57,6.07,6.19,7.47,1.79,.94,3.33,2.21,4.96,3.54,1.05,.86,2.13,1.75,3.34,2.61,3.08,2.18,6.5,3.24,9.81,4.26,1.02,.31,2.04,.63,3.05,.98,.51,.18,1.02,.38,1.52,.58,1.27,.51,2.71,1.09,4.33,1.33,.97,.14,1.88,.12,2.68,.1,.92-.02,1.72-.04,2.23,.19,.1,.04,.16,.08,.2,.1,.02,.17,.01,.68-.42,1.95-.53,1.58-.8,3.01-1.05,4.4-.17,.93-.34,1.81-.57,2.7-1.3,4.86-5.66,9.17-9.17,12.64-2.26,2.23-5.78,5.7-6.71,10.29-.78,.01-1.55,.03-2.33,.03-4.58,0-9.25-.35-13.92-1.05-1.67-6.22-5.9-7.91-8.46-8.34-2.06-.35-2.91-1.04-4.6-2.4-.53-.43-1.1-.88-1.75-1.37-1.14-.84-2.32-1.52-3.46-2.18-1.33-.77-2.58-1.5-3.59-2.38-.63-.56-1.23-1.17-1.86-1.82-1.41-1.45-3.01-3.08-5.21-4.24-.54-.28-1.1-.51-1.59-.71-.42-.16-1.07-.43-1.35-.62,.04-.29,.37-.94,.59-1.38,.49-.97,1.1-2.19,1.23-3.68,.43-5.23-2.16-9.59-4.45-13.44-.79-1.34-1.54-2.6-2.12-3.82-1.92-4.01-6.03-6.79-10.02-9.47-2.15-1.45-4.18-2.82-5.55-4.19l-.6-.61c-2.39-2.41-4.87-4.91-7.7-6.91-1.67-1.19-3.49-1.54-4.95-1.81-.96-.19-1.87-.36-2.32-.7-.39-.3-.74-.94-1.14-1.68-.49-.9-1.05-1.93-1.97-2.86-.88-.9-1.85-1.5-2.71-2.02-.68-.42-1.26-.78-1.65-1.2-3-30.56,11.5-61.96,36.72-81.85,.09,.16,.19,.33,.29,.49,1.38,2.27,2.67,4.41,3.57,6.64,.56,1.41,2.28,5.72,2.12,8.05-.1,1.32-1.55,2.77-2.95,4.17-.6,.6-1.22,1.21-1.78,1.87-3.56,4.14-7.99,9.29-6.93,17.08,.35,2.62,1.65,8.97,6.08,11.27,7.5,3.88,11.86-2.86,14.47-6.89,.82-1.28,2.32-3.6,3.09-4.01,.09,.44,.15,1.16,.19,1.63,.09,1.17,.19,2.5,.75,3.71,.71,1.52,1.89,3,3.13,4.57,1.81,2.27,4.07,5.1,3.35,6.61-.37,.79-1.47,1.27-3.24,1.97-1.12,.44-2.28,.9-3.35,1.61-3.24,2.12-5.66,5.88-7.12,8.67-2.1,4.03-2.56,8.34-3.01,12.52-.14,1.33-.27,2.6-.46,3.84-.2-.59-.39-1.22-.57-1.86-.86-2.9-1.83-6.2-5.05-8.39-2.94-1.99-10.52-4.86-15.16-3.49-2.06,.61-3.56,1.93-4.33,3.82-2,4.86,1.42,12.22,5.03,18.77l.77,1.41Z"></path><path class="cls-2" d="M64.03,122.75c2.11-.62,7.65,1.05,10.09,2.7,1.37,.94,1.91,2.56,2.66,5.13,.56,1.91,1.2,4.07,2.53,5.98,1.59,2.28,3.36,3.21,5.29,2.79,3.25-.72,3.95-4.81,4.29-6.78,.29-1.68,.47-3.39,.65-5.04,.4-3.78,.78-7.35,2.36-10.38,1.57-2.99,3.42-5.34,5.09-6.43,.56-.37,1.39-.7,2.27-1.04,2.24-.89,5.03-1.99,6.45-4.98,2.32-4.89-1.38-9.53-4.07-12.92-.98-1.22-1.98-2.49-2.39-3.36-.11-.25-.17-1.09-.21-1.64-.16-2.01-.41-5.38-3.62-6.72-5.21-2.17-8.37,2.73-10.68,6.3-3.3,5.1-4.48,5.96-6.66,4.83-1.23-.64-2.47-3.54-2.9-6.76-.66-4.77,1.65-7.85,5.52-12.36,.42-.48,.93-.99,1.48-1.53,1.97-1.97,4.43-4.43,4.69-7.99,.23-3.27-1.15-7.25-2.53-10.72-1.08-2.68-2.57-5.13-4.01-7.51-.2-.32-.38-.64-.57-.95,1.53-1.06,3.09-2.09,4.68-3.06,.06,1.11,.17,2.23,.37,3.34,.54,2.88,2.19,4.64,3.51,6.04,.51,.54,.99,1.06,1.41,1.61,.96,1.29,1.62,2.83,2.31,4.46,1.17,2.74,2.49,5.84,5.54,8.28,2.38,1.91,7.69,4.04,12.16,4.04,.77,0,1.52-.07,2.23-.21,2.8-.56,4.19-2.12,4.86-3.35,1.31-2.4,.83-5.38,.44-7.79-.14-.87-.29-1.77-.29-2.34,0-2.77,.49-5.13,1.33-6.38,1.99-2.93,3.86-5.7,1.68-10.58-1.62-3.62-1.84-6.32-.69-9.68,3.31-.42,6.63-.63,9.96-.63,3.83,0,7.64,.3,11.42,.85-.73,6.95-.56,14.15,3.53,18.68,3.61,4,9.14,5.46,14.5,6.87,5.28,1.4,10.27,2.71,12.52,6.19,2.09,3.24,3.03,7.1-4.23,13.37-2.88,2.49-3.7,2.01-6.73,.21-1.64-.97-3.68-2.18-6.31-2.77-2.69-.6-4.74-.18-6.09,1.25-2.17,2.3-1.22,5.67-.45,8.39,.13,.46,.26,.91,.36,1.33,.97,3.99,3.45,6.12,5.63,7.99,1.26,1.08,2.45,2.11,3.28,3.45,1.12,1.8,.77,2.91-.41,5.86l-.17,.42c-1.51,3.81-.55,7.61,2.59,10.19,2.5,2.05,6.03,3.12,9.46,3.12,2.62,0,5.18-.62,7.17-1.91,.65-.42,1.21-.89,1.7-1.41l.86,.26c-4.01,3.87-3.51,8.57-3.11,12.33,.12,1.16,.23,2.25,.23,3.29,.01,1.69-.97,2.72-2.83,4.55-1.15,1.12-2.45,2.38-3.47,4.05-.57,.91-1.2,1.82-1.86,2.79-2.25,3.26-4.8,6.96-5.12,11.62-.3,4.57,2.25,5.83,3.94,6.67,.46,.23,.9,.44,1.34,.74,.4,.26,.71,.79,1.19,1.63,.63,1.12,1.41,2.5,2.92,3.56,2.89,2,7.23,2.44,10.02,1.84,1.32-.28,2.55-.84,3.64-1.33,2.32-1.05,3.11-1.27,3.92-.74,1.09,.73,1.08,2.51,.95,5.35-.06,1.44-.13,2.92,.08,4.34,.37,2.53,1.47,4.72,2.44,6.65,.48,.97,.94,1.91,1.3,2.83-14.78,15.87-34.82,25.65-57.41,27.65,.9-1.95,2.65-3.8,4.54-5.66,3.81-3.77,9.03-8.93,10.75-15.37,.29-1.12,.48-2.15,.67-3.15,.22-1.23,.44-2.39,.84-3.56,1.96-5.83-.56-8.36-3.02-9.46-1.74-.78-3.45-.74-4.81-.71-.63,.01-1.22,.03-1.68-.04-.92-.13-1.87-.51-2.97-.95-.58-.24-1.18-.48-1.78-.69-1.07-.37-2.16-.71-3.25-1.04-2.99-.92-5.81-1.8-8.11-3.43-1.04-.73-1.99-1.52-3-2.35-1.79-1.46-3.65-2.98-5.96-4.2-2.23-1.19-2.79-1.8-3.14-3.44-.69-3.23-2.82-5.4-5.98-6.09-6.92-1.51-17.36,4.61-20.18,8.37l-.47,.65c-.38,.51-.89,1.21-1.05,1.33,0,0-.25,.04-.95-.14-.87-.23-1.82-.75-2.35-2.91-.11-.46-.19-1.38-.28-2.27-.28-3.07-.62-6.9-3.22-8.71-1.78-1.24-4.04-1.11-6.04-.99-.62,.04-1.47,.09-1.79,.04-1.5-.27-2.41-1.8-3.73-4.3l-.81-1.52c-5.15-9.34-5.18-12.52-4.75-13.58,.06-.13,.1-.24,.49-.36Z"></path><path class="cls-1" d="M42.97,38.51c1.19,1.15,1.22,3.05,.07,4.24-10.34,10.65-17.25,22.14-20.55,34.15-3.8,13.79-3.78,28.33-3.76,42.39,0,.83-.33,1.58-.88,2.12-.54,.54-1.29,.88-2.12,.88-1.66,0-3-1.34-3-2.99-.02-14.46-.04-29.41,3.97-43.99,3.57-12.99,10.99-25.35,22.03-36.74,1.15-1.19,3.05-1.22,4.24-.06Z"></path><path class="cls-2" d="M39.9,200.87c.6,1.81,1.23,3.67,1.88,5.51-.45,1.64-.82,3.23-1.13,4.77-1.01-2.23-1.78-4.7-2.43-6.8-.88-2.84-1.62-6.01-2.27-9.61,.26-.05,.5-.06,.67,0,.42,.16,1.54,.96,2.93,5.08l.35,1.05Z"></path><path class="cls-2" d="M39.55,220.09c-.07,2.21,.01,4.35,.26,6.41-.11,.01-.21,.01-.32,.01-.35,.03-.74,.09-1.12,.14-3.45-4.47-5.53-7.84-7.47-13.51-2.9-8.47-5.51-20.39-3.46-32.63,.44,1.05,.78,2.09,.89,3.14,.3,2.67,.71,6.18,1.3,9.74,.78,4.86,1.71,9.02,2.88,12.81,1.36,4.4,3.18,10.25,7.04,13.89Z"></path><path class="cls-2" d="M25.22,215.08c1.86,5.43,3.95,9.17,6.82,13.12-2.02,.73-4.03,1.68-5.81,2.84-1.21-.9-2.24-1.84-3.09-2.87-3.61-4.34-5.14-10.59-6.63-16.64-.32-1.31-.64-2.6-.97-3.85-2.06-7.73-1.72-15.01-1.15-22.41,.7-9.23,2.08-18,3.88-24.69,.48-1.78,.7-3.5,.67-5.12,.52,.47,1.01,1.03,1.47,1.7,1.74,2.54,2.01,5.36,2.31,8.62,.15,1.61,.31,3.27,.65,5,.05,.23,.1,.45,.15,.66-5.35,16.23-2.07,32.64,1.7,43.64Z"></path></g></g></svg>